# xmcd
#
# Track frame offsets: 
#        182
#        80527
#        134557
#        222462
#
# Disc length: 4465 seconds
#
# Revision: 10
# Processed by: cddbd v1.5.2PL0 Copyright (c) Steve Scherf et al.
# Submitted via: ExactAudioCopy v1.3
#
DISCID=39116f04
DTITLE=Wilhelm Furtwangler and Chor und Orchester der Bayreuther Festspi
DTITLE=ele - Beethoven Symphony No 9 Choral
DYEAR=1951
DGENRE=Classical
TTITLE0=Wilhelm Furtwangler and Chor und Orchester der Bayreuther Festsp
TTITLE0=iele and Elisabeth Schwarzkopf and Elisabeth Hongen and Hans Hopf and 
TTITLE0=Otto Edelmann  - Beethoven Symphony No 9 in d minor Op 125 Cho
TTITLE0=ral - 1 Allegro ma non troppo un poco maestoso
TTITLE1=Wilhelm Furtwangler and Chor und Orchester der Bayreuther Festsp
TTITLE1=iele and Elisabeth Schwarzkopf and Elisabeth Hongen and Hans Hopf and 
TTITLE1=Otto Edelmann  - Beethoven Symphony No 9 in d minor Op 125 Cho
TTITLE1=ral - 2 Molto vivace
TTITLE2=Wilhelm Furtwangler and Chor und Orchester der Bayreuther Festsp
TTITLE2=iele and Elisabeth Schwarzkopf and Elisabeth Hongen and Hans Hopf and 
TTITLE2=Otto Edelmann  - Beethoven Symphony No 9 in d minor Op 125 Cho
TTITLE2=ral - 3 Adagio e molto cantabile-Andante moderato-Adagio
TTITLE3=Wilhelm Furtwangler and Chor und Orchester der Bayreuther Festsp
TTITLE3=iele and Elisabeth Schwarzkopf and Elisabeth Hongen and Hans Hopf and 
TTITLE3=Otto Edelmann  - Beethoven Symphony No 9 in d minor Op 125 Cho
TTITLE3=ral - 4 Presto-Allegro ma non troppo-Allegro assai-Presto-Alle
TTITLE3=gro assai-Allegro assai-Alla marcia Allegro vivace assai-Andan
TTITLE3=te maestoso-Adagio non troppo ma divoto-Allegro energico sempr
TTITLE3=e ben marcato
EXTD=
EXTT0=
EXTT1=
EXTT2=
EXTT3=
PLAYORDER=
